<?xml version="1.0" encoding="UTF-8" standalone="no"?>
<!-- Created with Inkscape (http://www.inkscape.org/) -->

<svg
   xmlns:dc="http://purl.org/dc/elements/1.1/"
   xmlns:cc="http://creativecommons.org/ns#"
   xmlns:rdf="http://www.w3.org/1999/02/22-rdf-syntax-ns#"
   xmlns:svg="http://www.w3.org/2000/svg"
   xmlns="http://www.w3.org/2000/svg"
   version="1.1"
   width="744.09448"
   height="1052.3622"
   id="svg4503">
  <defs
     id="defs4505" />
  <metadata
     id="metadata4508">
    <rdf:RDF>
      <cc:Work
         rdf:about="">
        <dc:format>image/svg+xml</dc:format>
        <dc:type
           rdf:resource="http://purl.org/dc/dcmitype/StillImage" />
        <dc:title></dc:title>
      </cc:Work>
    </rdf:RDF>
  </metadata>
  <g
     transform="translate(3.6621094e-4,-17.500211)"
     id="layer1">
    <g
       transform="translate(3.6621094e-4,-4.1742188e-4)"
       id="g3845">
      <g
         id="g3931"
         style="fill:#ffffff">
        <rect
           width="161.658"
           height="161.658"
           x="129.55037"
           y="526.17902"
           id="rect3933"
           style="fill:#ffffff;fill-opacity:1;stroke:none" />
        <rect
           width="161.658"
           height="161.658"
           x="291.20837"
           y="526.17902"
           id="rect3935"
           style="fill:#ffffff;fill-opacity:1;stroke:none" />
        <rect
           width="161.658"
           height="161.658"
           x="452.86639"
           y="526.17902"
           id="rect3937"
           style="fill:#ffffff;fill-opacity:1;stroke:none" />
        <rect
           width="161.658"
           height="161.658"
           x="291.20837"
           y="687.83704"
           id="rect3939"
           style="fill:#ffffff;fill-opacity:1;stroke:none" />
        <rect
           width="161.658"
           height="161.658"
           x="291.20837"
           y="364.52103"
           id="rect3941"
           style="fill:#ffffff;fill-opacity:1;stroke:none" />
        <rect
           width="161.658"
           height="161.658"
           x="291.20837"
           y="202.86302"
           id="rect3943"
           style="fill:#ffffff;fill-opacity:1;stroke:none" />
        <path
           d="m 452.875,687.84375 0,161.65625 35,-20.21875 0,-121.21875 -35,-20.21875 z"
           transform="translate(0,2.5390623e-6)"
           id="path3945"
           style="fill:#ffffff;fill-opacity:1;stroke:none" />
        <path
           d="m 291.20837,687.83791 0,161.65625 -35,-20.21875 0,-121.21875 35,-20.21875 z"
           id="path3947"
           style="fill:#ffffff;fill-opacity:1;stroke:none" />
        <path
           d="m 452.875,364.52482 0,161.65625 35,-20.21875 0,-121.21875 -35,-20.21875 z"
           id="path3949"
           style="fill:#ffffff;fill-opacity:1;stroke:none" />
        <path
           d="m 291.20837,364.51898 0,161.65625 -35,-20.21875 0,-121.21875 35,-20.21875 z"
           id="path3951"
           style="fill:#ffffff;fill-opacity:1;stroke:none" />
        <path
           d="m 452.875,202.86682 0,161.65625 35,-20.21875 0,-121.21875 -35,-20.21875 z"
           id="path3953"
           style="fill:#ffffff;fill-opacity:1;stroke:none" />
        <path
           d="m 291.20837,202.86098 0,161.65625 -35,-20.21875 0,-121.21875 35,-20.21875 z"
           id="path3955"
           style="fill:#ffffff;fill-opacity:1;stroke:none" />
        <path
           d="m 291.20925,849.49504 161.65625,0 -20.21875,35 -121.21875,0 -20.21875,-35 z"
           id="path3005"
           style="fill:#ffffff;fill-opacity:1;stroke:none" />
      </g>
      <g
         id="g3823">
        <g
           id="g3817"
           style="fill:none;stroke:#808080;stroke-width:1;stroke-miterlimit:4;stroke-opacity:1;stroke-dasharray:4, 4;stroke-dashoffset:0">
          <path
             d="m 291.20836,526.17902 161.658,0 0,161.658 -161.658,0 z"
             id="rect5118"
             style="fill:none;stroke:#808080;stroke-width:1;stroke-miterlimit:4;stroke-opacity:1;stroke-dasharray:4, 4;stroke-dashoffset:0" />
          <path
             d="m 452.86636,687.83702 0,161.658 -161.658,0 0,-161.658"
             id="rect5122"
             style="fill:none;stroke:#808080;stroke-width:1;stroke-miterlimit:4;stroke-opacity:1;stroke-dasharray:4, 4;stroke-dashoffset:0" />
          <path
             d="m 291.20836,526.17902 0,-161.658 m 161.658,0 0,161.658"
             id="rect5124"
             style="fill:none;stroke:#808080;stroke-width:1;stroke-miterlimit:4;stroke-opacity:1;stroke-dasharray:4, 4;stroke-dashoffset:0" />
          <path
             d="m 452.86636,202.86302 0,161.658 -161.658,0 0,-161.658"
             id="rect5126"
             style="fill:none;stroke:#808080;stroke-width:1;stroke-miterlimit:4;stroke-opacity:1;stroke-dasharray:4, 4;stroke-dashoffset:0" />
        </g>
      </g>
      <g
         id="g3007"
         style="fill:#0000ff">
        <path
           d="m 291.21875,202.875 -35,20.21875 0,121.21875 35,20.21875 -35,20.21875 0,121.21875 35,20.21875 -161.65625,0 0,161.65625 161.65625,0 -35,20.21875 0,121.21875 35,20.21875 20.21875,35 121.21875,0 20.21875,-35 35,-20.21875 0,-121.21875 -35,-20.21875 161.65625,0 0,-161.65625 -161.65625,0 35,-20.21875 0,-121.21875 -35,-20.21875 35,-20.21875 0,-121.21875 -35,-20.21875 -161.65625,0 z"
           transform="translate(-3.6621094e-4,4.1996094e-4)"
           id="rect3009"
           style="fill:none;stroke:#000000;stroke-opacity:1" />
      </g>
    </g>
  </g>
</svg>
