<?xml version="1.0" encoding="UTF-8" standalone="no"?>
<!-- Created with Inkscape (http://www.inkscape.org/) -->

<svg
   xmlns:dc="http://purl.org/dc/elements/1.1/"
   xmlns:cc="http://creativecommons.org/ns#"
   xmlns:rdf="http://www.w3.org/1999/02/22-rdf-syntax-ns#"
   xmlns:svg="http://www.w3.org/2000/svg"
   xmlns="http://www.w3.org/2000/svg"
   xmlns:sodipodi="http://sodipodi.sourceforge.net/DTD/sodipodi-0.dtd"
   xmlns:inkscape="http://www.inkscape.org/namespaces/inkscape"
   width="744.09448"
   height="1052.3622"
   id="svg4503"
   version="1.1"
   inkscape:version="0.48.2 r9819"
   sodipodi:docname="hexahedron.svg"
   inkscape:export-filename="/Users/cjhoward/cjhoward/platonic/hexahedron-inkscape.png"
   inkscape:export-xdpi="90"
   inkscape:export-ydpi="90">
  <defs
     id="defs4505" />
  <sodipodi:namedview
     id="base"
     pagecolor="#ffffff"
     bordercolor="#666666"
     borderopacity="1.0"
     inkscape:pageopacity="1"
     inkscape:pageshadow="2"
     inkscape:zoom="0.5"
     inkscape:cx="380.94702"
     inkscape:cy="692.31164"
     inkscape:document-units="px"
     inkscape:current-layer="layer1"
     showgrid="false"
     inkscape:window-width="1163"
     inkscape:window-height="739"
     inkscape:window-x="80"
     inkscape:window-y="85"
     inkscape:window-maximized="0"
     units="mm" />
  <metadata
     id="metadata4508">
    <rdf:RDF>
      <cc:Work
         rdf:about="">
        <dc:format>image/svg+xml</dc:format>
        <dc:type
           rdf:resource="http://purl.org/dc/dcmitype/StillImage" />
        <dc:title></dc:title>
      </cc:Work>
    </rdf:RDF>
  </metadata>
  <g
     inkscape:label="Layer 1"
     inkscape:groupmode="layer"
     id="layer1"
     transform="translate(0,-2.5390623e-6)">
    <g
       id="g3845">
      <g
         id="g3831"
         style="fill:#ffffff">
        <rect
           style="fill:#ffffff;fill-opacity:1;stroke:none"
           id="rect4511"
           width="161.658"
           height="161.658"
           x="129.55037"
           y="526.17902" />
        <rect
           y="526.17902"
           x="291.20837"
           height="161.658"
           width="161.658"
           id="rect5021"
           style="fill:#ffffff;fill-opacity:1;stroke:none" />
        <rect
           style="fill:#ffffff;fill-opacity:1;stroke:none"
           id="rect5023"
           width="161.658"
           height="161.658"
           x="452.86639"
           y="526.17902" />
        <rect
           style="fill:#ffffff;fill-opacity:1;stroke:none"
           id="rect5025"
           width="161.658"
           height="161.658"
           x="291.20837"
           y="687.83704" />
        <rect
           style="fill:#ffffff;fill-opacity:1;stroke:none"
           id="rect5027"
           width="161.658"
           height="161.658"
           x="291.20837"
           y="364.52103" />
        <rect
           y="202.86302"
           x="291.20837"
           height="161.658"
           width="161.658"
           id="rect5029"
           style="fill:#ffffff;fill-opacity:1;stroke:none" />
        <path
           style="fill:#ffffff;fill-opacity:1;stroke:none"
           d="m 267.869,836.01681 23.33936,13.47821 0,-161.65799 -23.33936,13.47823 0,134.70155 z"
           id="path5031"
           inkscape:connector-curvature="0" />
        <path
           inkscape:connector-curvature="0"
           id="path5036"
           d="m 476.20573,836.01681 -23.33937,13.47821 0,-161.65799 23.33937,13.47823 0,134.70155 z"
           style="fill:#ffffff;fill-opacity:1;stroke:none" />
        <path
           inkscape:connector-curvature="0"
           id="path5038"
           d="m 267.869,512.70081 23.33936,13.47821 0,-161.65799 -23.33936,13.47823 0,134.70155 z"
           style="fill:#ffffff;fill-opacity:1;stroke:none" />
        <path
           style="fill:#ffffff;fill-opacity:1;stroke:none"
           d="m 476.20573,512.70081 -23.33937,13.47821 0,-161.65799 23.33937,13.47823 0,134.70155 z"
           id="path5040"
           inkscape:connector-curvature="0" />
        <path
           style="fill:#ffffff;fill-opacity:1;stroke:none"
           d="m 267.869,351.04281 23.33936,13.47821 0,-161.65799 -23.33936,13.47823 0,134.70155 z"
           id="path5042"
           inkscape:connector-curvature="0" />
        <path
           inkscape:connector-curvature="0"
           id="path5044"
           d="m 476.20573,351.04281 -23.33937,13.47821 0,-161.65799 23.33937,13.47823 0,134.70155 z"
           style="fill:#ffffff;fill-opacity:1;stroke:none" />
      </g>
      <g
         id="g3823">
        <path
           inkscape:connector-curvature="0"
           id="rect5142"
           d="m 291.21824,202.86717 -23.33938,13.47823 0,134.70153 23.33938,13.47824 -23.33938,13.47823 0,134.70153 23.33938,13.47824 -161.658,0 0,161.658 161.658,0 -23.33938,13.47823 0,134.70156 23.33938,13.47821 161.658,0 23.33937,-13.47821 0,-134.70156 -23.33937,-13.47823 161.658,0 0,-161.658 -161.658,0 23.33937,-13.47824 0,-134.70153 -23.33937,-13.47823 23.33937,-13.47824 0,-134.70153 -23.33937,-13.47823 -161.658,0 z"
           style="fill:none;stroke:#000000;stroke-width:1;stroke-miterlimit:4;stroke-opacity:1;stroke-dasharray:none;stroke-dashoffset:0" />
        <g
           id="g3817"
           style="fill:none;stroke:#808080;stroke-width:1;stroke-miterlimit:4;stroke-opacity:1;stroke-dasharray:4, 4;stroke-dashoffset:0">
          <path
             style="fill:none;stroke:#808080;stroke-width:1;stroke-miterlimit:4;stroke-opacity:1;stroke-dasharray:4, 4;stroke-dashoffset:0"
             d="m 291.20836,526.17902 161.658,0 0,161.658 -161.658,0 z"
             id="rect5118"
             inkscape:connector-curvature="0" />
          <path
             style="fill:none;stroke:#808080;stroke-width:1;stroke-miterlimit:4;stroke-opacity:1;stroke-dasharray:4, 4;stroke-dashoffset:0"
             d="m 291.20836,849.49502 0,-161.658 m 161.658,0 0,161.658"
             id="rect5122"
             inkscape:connector-curvature="0"
             sodipodi:nodetypes="cccc" />
          <path
             style="fill:none;stroke:#808080;stroke-width:1;stroke-miterlimit:4;stroke-opacity:1;stroke-dasharray:4, 4;stroke-dashoffset:0"
             d="m 291.20836,526.17902 0,-161.658 m 161.658,0 0,161.658"
             id="rect5124"
             inkscape:connector-curvature="0"
             sodipodi:nodetypes="cccc" />
          <path
             style="fill:none;stroke:#808080;stroke-width:1;stroke-miterlimit:4;stroke-opacity:1;stroke-dasharray:4, 4;stroke-dashoffset:0"
             d="m 452.86636,202.86302 0,161.658 -161.658,0 0,-161.658"
             id="rect5126"
             inkscape:connector-curvature="0"
             sodipodi:nodetypes="cccc" />
        </g>
      </g>
    </g>
  </g>
</svg>
