<?xml version="1.0" encoding="UTF-8" standalone="no"?>
<!-- Created with Inkscape (http://www.inkscape.org/) -->

<svg
   xmlns:dc="http://purl.org/dc/elements/1.1/"
   xmlns:cc="http://creativecommons.org/ns#"
   xmlns:rdf="http://www.w3.org/1999/02/22-rdf-syntax-ns#"
   xmlns:svg="http://www.w3.org/2000/svg"
   xmlns="http://www.w3.org/2000/svg"
   version="1.1"
   width="744.09448"
   height="1052.3622"
   id="svg5252">
  <defs
     id="defs5254" />
  <metadata
     id="metadata5257">
    <rdf:RDF>
      <cc:Work
         rdf:about="">
        <dc:format>image/svg+xml</dc:format>
        <dc:type
           rdf:resource="http://purl.org/dc/dcmitype/StillImage" />
        <dc:title></dc:title>
      </cc:Work>
    </rdf:RDF>
  </metadata>
  <g
     id="layer1">
    <g
       transform="translate(-4.1105858,0.00262101)"
       id="g3873">
      <g
         id="g3858"
         style="fill:#ffffff">
        <path
           d="m 298.51403,348.74479 -201.048266,0 L 197.9899,174.63188 z"
           transform="matrix(0.98477845,0,0,0.98477845,119.32538,439.92771)"
           id="path5260"
           style="fill:#ffffff;fill-opacity:1;stroke:none" />
        <path
           d="m 298.51403,348.74479 -201.048266,0 L 197.9899,174.63188 z"
           transform="matrix(0.98477845,0,0,0.98477845,317.31338,439.92771)"
           id="path5770"
           style="fill:#ffffff;fill-opacity:1;stroke:none" />
        <path
           d="m 298.51403,348.74479 -201.048266,0 L 197.9899,174.63188 z"
           transform="matrix(0.98477845,0,0,0.98477845,218.31938,268.46535)"
           id="path5772"
           style="fill:#ffffff;fill-opacity:1;stroke:none" />
        <path
           d="m 298.51403,348.74479 -201.048266,0 L 197.9899,174.63188 z"
           transform="matrix(0.98477845,0,0,-0.98477845,218.31938,955.33778)"
           id="path5774"
           style="fill:#ffffff;fill-opacity:1;stroke:none" />
        <path
           d="m 298.51403,348.74479 -201.048266,0 L 197.9899,174.63188 z"
           transform="matrix(0.98477845,0,0,-0.98477845,20.331381,612.41306)"
           id="path5776"
           style="fill:#ffffff;fill-opacity:1;stroke:none" />
        <path
           d="m 298.51403,348.74479 -201.048266,0 L 197.9899,174.63188 z"
           transform="matrix(0.98477845,0,0,-0.98477845,218.31938,612.41306)"
           id="path5778"
           style="fill:#ffffff;fill-opacity:1;stroke:none" />
        <path
           d="m 298.51403,348.74479 -201.048266,0 L 197.9899,174.63188 z"
           transform="matrix(0.98477845,0,0,-0.98477845,119.32538,783.87542)"
           id="path5780"
           style="fill:#ffffff;fill-opacity:1;stroke:none" />
        <path
           d="m 298.51403,348.74479 -201.048266,0 L 197.9899,174.63188 z"
           transform="matrix(0.98477845,0,0,0.98477845,119.32538,97.002992)"
           id="path5782"
           style="fill:#ffffff;fill-opacity:1;stroke:none" />
        <path
           d="m 141.0625,226.125 -24.75,42.84375 198,0 -24.75,-42.84375 -148.5,0 z"
           id="path3008"
           style="fill:#ffffff;fill-opacity:1;stroke:none" />
        <path
           d="m 240.05157,826.20781 -24.75,-42.84375 198,0 -24.75,42.84375 -148.5,0 z"
           id="path3015"
           style="fill:#ffffff;fill-opacity:1;stroke:none" />
        <path
           d="m 190.57579,483.28988 24.72877,-42.856 99,171.47302 -49.47878,-0.0122 -74.24999,-128.60477 z"
           id="path3017"
           style="fill:#ffffff;fill-opacity:1;stroke:none" />
        <path
           d="m 561.76535,611.90844 -49.47877,-0.0122 98.99999,171.47302 24.72882,-42.85598 -74.25,-128.60476 z"
           id="path3019"
           style="fill:#ffffff;fill-opacity:1;stroke:none" />
        <path
           d="m 462.77134,440.43225 -49.47877,0.0123 98.99999,-171.47303 24.72882,42.85598 -74.25,128.60477 z"
           id="path3021"
           style="fill:#ffffff;fill-opacity:1;stroke:none" />
      </g>
      <g
         id="g3846">
        <g
           id="g3836"
           style="fill:none;stroke:#808080;stroke-width:1;stroke-miterlimit:4;stroke-opacity:1;stroke-dasharray:4, 4;stroke-dashoffset:0">
          <path
             d="m 413.29556,783.36406 -197.988,0"
             id="path5822"
             style="fill:none;stroke:#808080;stroke-width:1;stroke-miterlimit:4;stroke-opacity:1;stroke-dasharray:4, 4;stroke-dashoffset:0" />
          <path
             d="m 512.28957,611.90142 98.99399,171.46264"
             id="path5824"
             style="fill:none;stroke:#808080;stroke-width:1;stroke-miterlimit:4;stroke-opacity:1;stroke-dasharray:4, 4;stroke-dashoffset:0" />
          <path
             d="M 314.30156,611.9017 413.29557,440.43906"
             id="path5826"
             style="fill:none;stroke:#808080;stroke-width:1;stroke-miterlimit:4;stroke-opacity:1;stroke-dasharray:4, 4;stroke-dashoffset:0" />
          <path
             d="m 512.28956,611.90143 -197.988,0 98.99401,171.46264 z"
             id="path5828"
             style="fill:none;stroke:#808080;stroke-width:1;stroke-miterlimit:4;stroke-opacity:1;stroke-dasharray:4, 4;stroke-dashoffset:0" />
          <path
             d="m 314.30156,268.97671 -197.988,0"
             id="path5830"
             style="fill:none;stroke:#808080;stroke-width:1;stroke-miterlimit:4;stroke-opacity:1;stroke-dasharray:4, 4;stroke-dashoffset:0" />
          <path
             d="M 413.29557,440.43935 512.28956,268.97671"
             id="path5832"
             style="fill:none;stroke:#808080;stroke-width:1;stroke-miterlimit:4;stroke-opacity:1;stroke-dasharray:4, 4;stroke-dashoffset:0" />
          <path
             d="m 215.30756,440.43907 98.99401,171.46264"
             id="path5834"
             style="fill:none;stroke:#808080;stroke-width:1;stroke-miterlimit:4;stroke-opacity:1;stroke-dasharray:4, 4;stroke-dashoffset:0" />
          <path
             d="m 413.29556,440.43935 -197.988,0 98.99401,-171.46265 z"
             id="path5836"
             style="fill:none;stroke:#808080;stroke-width:1;stroke-miterlimit:4;stroke-opacity:1;stroke-dasharray:4, 4;stroke-dashoffset:0" />
        </g>
      </g>
      <g
         id="g3813"
         style="fill:#ff0000">
        <path
           d="m 153.4375,219 -24.75,42.84375 99,171.4375 -24.75,42.875 74.25,128.59375 49.5,0 -99,171.46875 24.75,42.84375 148.5,0 24.75,-42.84375 197.96875,0 24.71875,-42.84375 -74.25,-128.625 -49.46875,0 -98.96875,-171.4375 49.46875,-0.0312 74.25,-128.59375 -24.75,-42.84375 -0.0312,0 -197.9375,0 -24.75,-42.84375 -148.5,0 z"
           transform="translate(-12.372906,7.1472203)"
           id="path3815"
           style="fill:none;stroke:#000000;stroke-opacity:1" />
      </g>
    </g>
  </g>
</svg>
