<?xml version="1.0" encoding="UTF-8" standalone="no"?>
<!-- Created with Inkscape (http://www.inkscape.org/) -->

<svg
   xmlns:dc="http://purl.org/dc/elements/1.1/"
   xmlns:cc="http://creativecommons.org/ns#"
   xmlns:rdf="http://www.w3.org/1999/02/22-rdf-syntax-ns#"
   xmlns:svg="http://www.w3.org/2000/svg"
   xmlns="http://www.w3.org/2000/svg"
   version="1.1"
   width="744.09448"
   height="1052.3622"
   id="svg2">
  <defs
     id="defs4" />
  <metadata
     id="metadata7">
    <rdf:RDF>
      <cc:Work
         rdf:about="">
        <dc:format>image/svg+xml</dc:format>
        <dc:type
           rdf:resource="http://purl.org/dc/dcmitype/StillImage" />
        <dc:title></dc:title>
      </cc:Work>
    </rdf:RDF>
  </metadata>
  <g
     transform="translate(-5.7088788,16.502181)"
     id="g3888">
    <g
       id="g3873">
      <path
         d="m 278.75918,352.50171 197.9877,-114.30827 2e-5,228.61651 z"
         id="path3040"
         style="fill:#ffffff;fill-opacity:1;stroke:none" />
      <path
         d="m 278.75918,581.11821 197.9877,-114.30827 2e-5,228.61651 z"
         id="path3042"
         style="fill:#ffffff;fill-opacity:1;stroke:none" />
      <path
         d="m 476.74682,466.80996 -197.9877,-114.30827 -2e-5,228.61651 z"
         id="path3044"
         style="fill:#ffffff;fill-opacity:1;stroke:none" />
      <path
         d="m 476.74682,695.42646 -197.9877,-114.30827 -2e-5,228.61651 z"
         id="path3046"
         style="fill:#ffffff;fill-opacity:1;stroke:none" />
      <path
         d="m 476.74691,466.8057 0,228.625 49.5,-28.59375 0,-171.4375 -49.5,-28.59375 z"
         id="path3048"
         style="fill:#ffffff;fill-opacity:1;stroke:none" />
      <path
         d="m 278.75911,581.11395 0,228.625 -49.5,-28.59375 0,-171.4375 49.5,-28.59375 z"
         id="path3050"
         style="fill:#ffffff;fill-opacity:1;stroke:none" />
      <path
         d="m 278.7555,352.50381 197.99506,-114.3125 -49.51291,-28.57138 -148.46923,85.71875 -0.0129,57.16513 z"
         id="path3052"
         style="fill:#ffffff;fill-opacity:1;stroke:none" />
    </g>
    <path
       d="m 278.7621,295.34195 -0.0129,57.16513 0.0139,228.58659 -49.51022,28.62077 -2.5e-4,171.43709 49.51292,28.57138 197.968,-114.29688 49.52582,-28.59375 2.4e-4,-171.43708 -49.51291,-28.57138 -0.002,-228.62928 -49.51291,-28.57139 -148.46924,85.71875 z"
       id="path4370"
       style="fill:none;stroke:#000000;stroke-width:1;stroke-opacity:1" />
    <g
       id="g3882">
      <path
         d="M 278.75923,352.50167 476.74693,238.19342"
         id="path4386"
         style="fill:none;stroke:#808080;stroke-width:1;stroke-linecap:butt;stroke-miterlimit:4;stroke-opacity:1;stroke-dasharray:4, 4;stroke-dashoffset:0" />
      <path
         d="m 278.75923,581.11817 197.9877,-114.30825 10e-6,228.6165 z"
         id="path4388"
         style="fill:none;stroke:#808080;stroke-width:1;stroke-linecap:butt;stroke-miterlimit:4;stroke-opacity:1;stroke-dasharray:4, 4;stroke-dashoffset:0" />
      <path
         d="M 476.74688,466.80992 278.75918,352.50167"
         id="path4390"
         style="fill:none;stroke:#808080;stroke-width:1;stroke-linecap:butt;stroke-miterlimit:4;stroke-opacity:1;stroke-dasharray:4, 4;stroke-dashoffset:0" />
      <path
         d="m 278.75918,581.11817 -1e-5,228.6165"
         id="path4392"
         style="fill:none;stroke:#808080;stroke-width:1;stroke-linecap:butt;stroke-miterlimit:4;stroke-opacity:1;stroke-dasharray:4, 4;stroke-dashoffset:0" />
    </g>
  </g>
</svg>
